# xmcd CD database file generated by OrangeCD 4.3
#
# Track frame offsets:
#	150
#	22964
#	48094
#	80780
#	107521
#	139281
#	161226
#	195957
#	229737
#	251396
#	278084
#
# Disc length: 3992 seconds
#
# Revision: 1
# Processed by: cddbd v1.4PL0 Copyright (c) Steve Scherf et al.
# Submitted via: OrangeCD 4.3
#
DISCID=890f960b
DTITLE=Medwyn Goodall - Visions - Best of 1990-1995
DYEAR=2000
DGENRE=New Age
TTITLE0=Invocation
TTITLE1=Spirit Dancer
TTITLE2=Temple Journey
TTITLE3=Vision Quest
TTITLE4=Tears of the Deep
TTITLE5=Undersea Oasis
TTITLE6=Sacred Companion
TTITLE7=Pathfinder-Reprise
TTITLE8=Lady of the Lake
TTITLE9=Nine Maidens
TTITLE10=The Mountains Will Remember Us
EXTD=YEAR: 2000
EXTT0=
EXTT1=
EXTT2=
EXTT3=
EXTT4=
EXTT5=
EXTT6=
EXTT7=
EXTT8=
EXTT9=
EXTT10=
PLAYORDER=
